<?xml version="1.0"?>
<svg xmlns="http://www.w3.org/2000/svg" height="512px" viewBox="0 -27 481 481" width="512px" class=""><g><path d="m481 50c0-27.613281-22.386719-50-50-50h-381c-27.613281 0-50 22.386719-50 50v326c0 27.613281 22.386719 50 50 50h381c27.613281 0 50-22.386719 50-50zm-431.421875-30h380.84375c7.910156.023438 15.480469 3.203125 21.035156 8.832031 5.554688 5.628907 8.628907 13.246094 8.542969 21.152344v40.015625h-440v-40.015625c-.085938-7.90625 2.988281-15.523437 8.542969-21.152344 5.554687-5.628906 13.125-8.808593 21.035156-8.832031zm380.84375 386h-380.84375c-7.910156-.023438-15.480469-3.203125-21.035156-8.832031-5.554688-5.628907-8.628907-13.246094-8.542969-21.152344v-266.015625h440v266.015625c.085938 7.90625-2.988281 15.523437-8.542969 21.152344-5.554687 5.628906-13.125 8.808593-21.035156 8.832031zm0 0" data-original="#000000" class="active-path" data-old_color="#f5a426" fill="#f5a426"/><path d="m56.75 84.484375c16.429688 0 29.75-13.320313 29.75-29.75s-13.320312-29.75-29.75-29.75-29.75 13.320313-29.75 29.75c.019531 16.421875 13.328125 29.734375 29.75 29.75zm0-39.5c5.386719 0 9.75 4.367187 9.75 9.75 0 5.386719-4.363281 9.75-9.75 9.75s-9.75-4.363281-9.75-9.75c.007812-5.382813 4.367188-9.742187 9.75-9.75zm0 0" data-original="#000000" class="active-path" data-old_color="#f5a426" fill="#f5a426"/><path d="m121.75 84.484375c16.429688 0 29.75-13.320313 29.75-29.75s-13.320312-29.75-29.75-29.75-29.75 13.320313-29.75 29.75c.019531 16.421875 13.328125 29.734375 29.75 29.75zm0-39.5c5.386719 0 9.75 4.367187 9.75 9.75 0 5.386719-4.363281 9.75-9.75 9.75s-9.75-4.363281-9.75-9.75c.007812-5.382813 4.367188-9.742187 9.75-9.75zm0 0" data-original="#000000" class="active-path" data-old_color="#f5a426" fill="#f5a426"/><path d="m186.75 84.484375c16.429688 0 29.75-13.320313 29.75-29.75s-13.320312-29.75-29.75-29.75-29.75 13.320313-29.75 29.75c.019531 16.421875 13.328125 29.734375 29.75 29.75zm0-39.5c5.386719 0 9.75 4.367187 9.75 9.75 0 5.386719-4.363281 9.75-9.75 9.75s-9.75-4.363281-9.75-9.75c.007812-5.382813 4.367188-9.742187 9.75-9.75zm0 0" data-original="#000000" class="active-path" data-old_color="#f5a426" fill="#f5a426"/><path d="m72 192h177c5.523438 0 10-4.476562 10-10s-4.476562-10-10-10h-177c-5.523438 0-10 4.476562-10 10s4.476562 10 10 10zm0 0" data-original="#000000" class="active-path" data-old_color="#f5a426" fill="#f5a426"/><path d="m409 222h-337c-5.523438 0-10 4.476562-10 10s4.476562 10 10 10h337c5.523438 0 10-4.476562 10-10s-4.476562-10-10-10zm0 0" data-original="#000000" class="active-path" data-old_color="#f5a426" fill="#f5a426"/><path d="m409 273h-337c-5.523438 0-10 4.476562-10 10s4.476562 10 10 10h337c5.523438 0 10-4.476562 10-10s-4.476562-10-10-10zm0 0" data-original="#000000" class="active-path" data-old_color="#f5a426" fill="#f5a426"/><path d="m409 323h-337c-5.523438 0-10 4.476562-10 10s4.476562 10 10 10h337c5.523438 0 10-4.476562 10-10s-4.476562-10-10-10zm0 0" data-original="#000000" class="active-path" data-old_color="#f5a426" fill="#f5a426"/></g> </svg>
