<?xml version="1.0"?>
<svg xmlns="http://www.w3.org/2000/svg" viewBox="0 -16 512 512" width="512px" height="512px"><path d="m256 160c-5.519531 0-10 4.480469-10 10s4.480469 10 10 10 10-4.480469 10-10-4.480469-10-10-10zm0 0" fill="#f5a426"/><path d="m256 420c-5.519531 0-10 4.480469-10 10s4.480469 10 10 10 10-4.480469 10-10-4.480469-10-10-10zm0 0" fill="#f5a426"/><path d="m60 180h80c5.523438 0 10-4.476562 10-10v-20c0-17.210938-8.636719-32.363281-22.027344-41.445312 7.414063-7.265626 12.027344-17.378907 12.027344-28.554688 0-22.054688-17.945312-40-40-40s-40 17.945312-40 40c0 11.183594 4.617188 21.300781 12.039062 28.566406-13.289062 8.996094-22.039062 24.210938-22.039062 41.433594v20c0 5.523438 4.476562 10 10 10zm40-120c11.027344 0 20 8.972656 20 20s-8.972656 20-20 20-20-8.972656-20-20 8.972656-20 20-20zm-30 90c0-16.542969 13.457031-30 30-30 16.570312 0 30 13.429688 30 30v10h-60zm0 0" fill="#f5a426"/><path d="m296 90c0-16.542969-13.457031-30-30-30s-30 13.457031-30 30 13.457031 30 30 30 30-13.457031 30-30zm-30 10c-5.515625 0-10-4.484375-10-10s4.484375-10 10-10 10 4.484375 10 10-4.484375 10-10 10zm0 0" fill="#f5a426"/><path d="m346 120c16.542969 0 30-13.457031 30-30s-13.457031-30-30-30-30 13.457031-30 30 13.457031 30 30 30zm0-40c5.515625 0 10 4.484375 10 10s-4.484375 10-10 10-10-4.484375-10-10 4.484375-10 10-10zm0 0" fill="#f5a426"/><path d="m426 60c-16.542969 0-30 13.457031-30 30s13.457031 30 30 30 30-13.457031 30-30-13.457031-30-30-30zm0 40c-5.515625 0-10-4.484375-10-10s4.484375-10 10-10 10 4.484375 10 10-4.484375 10-10 10zm0 0" fill="#f5a426"/><path d="m60 440h80c5.523438 0 10-4.476562 10-10v-60c0-5.523438-4.476562-10-10-10v-20c0-22.097656-17.898438-40-40-40-22.054688 0-40 17.945312-40 40v20c-5.523438 0-10 4.476562-10 10v60c0 5.523438 4.476562 10 10 10zm20-100c0-11.027344 8.972656-20 20-20 11.046875 0 20 8.953125 20 20v20h-40zm-10 40h60v40h-60zm0 0" fill="#f5a426"/><path d="m296 350c0-16.542969-13.457031-30-30-30s-30 13.457031-30 30 13.457031 30 30 30 30-13.457031 30-30zm-30 10c-5.515625 0-10-4.484375-10-10s4.484375-10 10-10 10 4.484375 10 10-4.484375 10-10 10zm0 0" fill="#f5a426"/><path d="m346 380c16.542969 0 30-13.457031 30-30s-13.457031-30-30-30-30 13.457031-30 30 13.457031 30 30 30zm0-40c5.515625 0 10 4.484375 10 10s-4.484375 10-10 10-10-4.484375-10-10 4.484375-10 10-10zm0 0" fill="#f5a426"/><path d="m436 420h-140c-5.523438 0-10 4.476562-10 10s4.476562 10 10 10h140c5.523438 0 10-4.476562 10-10s-4.476562-10-10-10zm0 0" fill="#f5a426"/><path d="m436 160h-140c-5.523438 0-10 4.476562-10 10s4.476562 10 10 10h140c5.523438 0 10-4.476562 10-10s-4.476562-10-10-10zm0 0" fill="#f5a426"/><path d="m482 0h-452c-16.542969 0-30 13.457031-30 30v160c0 16.542969 13.457031 30 30 30h452c16.542969 0 30-13.457031 30-30v-160c0-16.542969-13.457031-30-30-30zm-302 200h-150c-5.515625 0-10-4.484375-10-10v-160c0-5.515625 4.484375-10 10-10h150zm312-10c0 5.515625-4.484375 10-10 10h-282v-180h282c5.515625 0 10 4.484375 10 10zm0 0" fill="#f5a426"/><path d="m482 260h-452c-16.542969 0-30 13.457031-30 30v160c0 16.542969 13.457031 30 30 30h452c16.542969 0 30-13.457031 30-30v-160c0-16.542969-13.457031-30-30-30zm-302 200h-150c-5.515625 0-10-4.484375-10-10v-160c0-5.515625 4.484375-10 10-10h150zm312-10c0 5.515625-4.484375 10-10 10h-282v-180h282c5.515625 0 10 4.484375 10 10zm0 0" fill="#f5a426"/></svg>
