<?xml version="1.0"?>
<svg xmlns="http://www.w3.org/2000/svg" viewBox="0 0 512 512" width="512px" height="512px"><path d="m478.152344 0h-444.304688c-18.664062 0-33.847656 13.683594-33.847656 30.5v450c0 16.816406 15.183594 30.5 33.847656 30.5h444.304688c18.664062 0 33.847656-13.683594 33.847656-30.5v-450c0-16.816406-15.183594-30.5-33.847656-30.5zm-444.304688 20h444.304688c7.503906 0 13.847656 4.808594 13.847656 10.5v69.5h-472v-69.5c0-5.691406 6.34375-10.5 13.847656-10.5zm444.304688 471h-444.304688c-7.503906 0-13.847656-4.808594-13.847656-10.5v-360.5h472v360.5c0 5.691406-6.34375 10.5-13.847656 10.5zm0 0" fill="#f5a426"/><path d="m191 70.332031h259.5c5.523438 0 10-4.476562 10-10 0-5.523437-4.476562-10-10-10h-259.5c-5.523438 0-10 4.476563-10 10 0 5.523438 4.476562 10 10 10zm0 0" fill="#f5a426"/><path d="m54.78125 68.648438c.542969.363281 1.121094.671874 1.730469.921874.601562.25 1.230469.441407 1.871093.570313.640626.128906 1.300782.1875 1.949219.1875.652344 0 1.3125-.058594 1.949219-.1875.640625-.128906 1.273438-.320313 1.882812-.570313.597657-.25 1.179688-.558593 1.71875-.921874.550782-.367188 1.058594-.777344 1.519532-1.25 1.859375-1.859376 2.929687-4.429688 2.929687-7.070313 0-2.628906-1.070312-5.207031-2.929687-7.066406-.460938-.460938-.96875-.882813-1.519532-1.242188-.539062-.359375-1.121093-.667969-1.71875-.917969-.609374-.25-1.242187-.441406-1.882812-.570312-1.289062-.261719-2.609375-.261719-3.898438 0-.640624.128906-1.269531.320312-1.871093.570312-.609375.25-1.1875.558594-1.730469.917969-.546875.359375-1.058594.78125-1.519531 1.242188-1.859375 1.859375-2.929688 4.4375-2.929688 7.066406 0 2.640625 1.070313 5.210937 2.929688 7.070313.460937.472656.972656.882812 1.519531 1.25zm0 0" fill="#f5a426"/><path d="m91.105469 64.160156c.25.601563.558593 1.179688.917969 1.71875.359374.550782.78125 1.0625 1.242187 1.53125.457031.460938.96875.871094 1.519531 1.238282.539063.363281 1.117188.671874 1.730469.921874.597656.25 1.226563.441407 1.867187.570313.640626.128906 1.300782.1875 1.953126.1875.648437 0 1.308593-.058594 1.949218-.1875s1.269532-.320313 1.878906-.570313c.601563-.25 1.179688-.558593 1.71875-.921874.550782-.367188 1.0625-.777344 1.519532-1.238282.460937-.46875.882812-.980468 1.242187-1.53125.359375-.539062.667969-1.117187.917969-1.71875.25-.609375.453125-1.230468.582031-1.871094.128907-.648437.191407-1.300781.191407-1.960937 0-.648437-.0625-1.308594-.191407-1.949219-.128906-.640625-.332031-1.269531-.582031-1.867187-.25-.601563-.558594-1.191407-.917969-1.730469-.359375-.550781-.78125-1.0625-1.242187-1.519531-.457032-.460938-.96875-.882813-1.519532-1.242188-.539062-.359375-1.117187-.667969-1.71875-.917969-.609374-.25-1.238281-.441406-1.878906-.570312-1.292968-.261719-2.609375-.261719-3.902344 0-.640624.128906-1.269531.320312-1.867187.570312-.613281.25-1.191406.558594-1.730469.917969-.550781.359375-1.0625.78125-1.519531 1.242188-.460937.457031-.882813.96875-1.242187 1.519531-.359376.539062-.667969 1.128906-.917969 1.730469-.25.597656-.441407 1.226562-.570313 1.867187-.132812.640625-.199218 1.300782-.199218 1.949219 0 .660156.066406 1.3125.199218 1.960937.128906.640626.320313 1.261719.570313 1.871094zm0 0" fill="#f5a426"/><path d="m131.105469 64.160156c.25.601563.558593 1.179688.917969 1.71875.359374.550782.78125 1.0625 1.242187 1.519532.457031.460937.96875.882812 1.519531 1.25.539063.363281 1.117188.671874 1.730469.921874.597656.25 1.226563.441407 1.867187.570313.640626.128906 1.300782.1875 1.953126.1875.648437 0 1.308593-.058594 1.949218-.1875s1.269532-.320313 1.867188-.570313c.613281-.25 1.191406-.558593 1.730468-.921874.550782-.367188 1.0625-.789063 1.519532-1.25 1.863281-1.859376 2.933594-4.429688 2.933594-7.070313 0-.648437-.0625-1.296875-.191407-1.949219-.128906-.640625-.332031-1.269531-.582031-1.867187-.25-.601563-.558594-1.183594-.917969-1.730469-.359375-.542969-.78125-1.0625-1.242187-1.519531-.457032-.460938-.96875-.882813-1.519532-1.242188-.539062-.359375-1.117187-.667969-1.730468-.917969-.597656-.25-1.226563-.441406-1.867188-.570312-1.28125-.261719-2.609375-.261719-3.902344 0-.640624.128906-1.269531.320312-1.867187.570312-.613281.25-1.191406.558594-1.730469.917969-.550781.359375-1.0625.78125-1.519531 1.242188-.460937.457031-.882813.976562-1.242187 1.519531-.359376.546875-.667969 1.128906-.917969 1.730469-.25.597656-.453125 1.226562-.570313 1.867187-.132812.652344-.199218 1.300782-.199218 1.949219 0 .660156.066406 1.3125.199218 1.960937.117188.640626.320313 1.261719.570313 1.871094zm0 0" fill="#f5a426"/><path d="m455.832031 400h-20.332031c-5.523438 0-10 4.476562-10 10s4.476562 10 10 10h20.332031c5.523438 0 10-4.476562 10-10s-4.476562-10-10-10zm0 0" fill="#f5a426"/><path d="m289.832031 420h65.667969c5.523438 0 10-4.476562 10-10s-4.476562-10-10-10h-65.667969c-5.523437 0-10 4.476562-10 10s4.480469 10 10 10zm0 0" fill="#f5a426"/><path d="m455.832031 360h-166c-5.523437 0-10 4.476562-10 10s4.476563 10 10 10h166c5.523438 0 10-4.476562 10-10s-4.476562-10-10-10zm0 0" fill="#f5a426"/><path d="m387.523438 415.878906c.359374.550782.78125 1.0625 1.238281 1.519532.460937.460937.972656.882812 1.519531 1.25.542969.363281 1.121094.671874 1.722656.921874.609375.25 1.238282.441407 1.878906.570313.640626.128906 1.300782.1875 1.949219.1875.652344 0 1.3125-.058594 1.949219-.1875.640625-.128906 1.273438-.320313 1.871094-.570313.609375-.25 1.191406-.558593 1.730468-.921874.550782-.367188 1.058594-.789063 1.519532-1.25.460937-.457032.878906-.96875 1.242187-1.519532.359375-.539062.667969-1.117187.917969-1.71875.25-.609375.449219-1.230468.570312-1.871094.128907-.648437.199219-1.300781.199219-1.960937 0-.648437-.070312-1.308594-.199219-1.949219-.121093-.640625-.320312-1.269531-.570312-1.867187-.25-.601563-.558594-1.191407-.917969-1.730469-.363281-.550781-.78125-1.0625-1.242187-1.519531-2.320313-2.320313-5.78125-3.382813-9.019532-2.730469-.640624.128906-1.269531.320312-1.878906.570312-.601562.25-1.179687.558594-1.722656.917969-.546875.359375-1.058594.78125-1.519531 1.242188-.457031.457031-.878907.96875-1.238281 1.519531-.359376.539062-.671876 1.128906-.921876 1.730469-.25.597656-.4375 1.226562-.570312 1.867187-.128906.640625-.199219 1.300782-.199219 1.949219 0 .660156.070313 1.3125.199219 1.960937.132812.640626.320312 1.261719.570312 1.871094.253907.601563.5625 1.179688.921876 1.71875zm0 0" fill="#f5a426"/><path d="m455.832031 440h-166c-5.523437 0-10 4.476562-10 10s4.476563 10 10 10h166c5.523438 0 10-4.476562 10-10s-4.476562-10-10-10zm0 0" fill="#f5a426"/><path d="m465.832031 160.167969v-.167969c0-.082031-.007812-.160156-.011719-.238281-.003906-.230469-.011718-.460938-.035156-.691407-.011718-.136718-.035156-.273437-.050781-.410156-.027344-.183594-.050781-.367187-.085937-.550781-.035157-.183594-.082032-.367187-.128907-.550781-.03125-.128906-.058593-.257813-.097656-.390625-.070313-.226563-.148437-.445313-.230469-.664063-.027344-.074218-.046875-.144531-.074218-.21875-.007813-.019531-.015626-.035156-.023438-.054687-.09375-.222657-.199219-.441407-.304688-.660157-.042968-.085937-.082031-.175781-.125-.257812-.09375-.179688-.203124-.351562-.308593-.523438-.070313-.113281-.132813-.234374-.207031-.34375-.078126-.117187-.164063-.222656-.246094-.335937-.113282-.15625-.222656-.3125-.347656-.460937-.039063-.050782-.085938-.09375-.128907-.144532-.167969-.195312-.339843-.390625-.523437-.574218-.007813-.011719-.019532-.019532-.027344-.027344-.21875-.214844-.445312-.421875-.679688-.617188-.058593-.046875-.121093-.089844-.179687-.136718-.191406-.148438-.378906-.296876-.578125-.429688-.238281-.160156-.484375-.308594-.734375-.449219-.023437-.011719-.046875-.03125-.070313-.042969-.511718-.28125-1.050781-.511718-1.609374-.699218-.054688-.019532-.109376-.042969-.164063-.058594-.179687-.058594-.367187-.101562-.554687-.148438-.132813-.035156-.269532-.074218-.40625-.105468-.125-.023438-.253907-.039063-.382813-.0625-.203125-.035156-.40625-.074219-.613281-.09375-.089844-.011719-.179688-.011719-.269532-.019532-.246093-.019531-.496093-.035156-.746093-.035156-.019531 0-.039063-.003906-.054688-.003906h-400c-.019531 0-.035156.003906-.054687.003906-.253906 0-.503906.015625-.753906.035156-.085938.007813-.175782.011719-.261719.019532-.214844.023437-.421875.058594-.632813.097656-.121094.019531-.246094.035156-.363281.058594-.152344.03125-.296875.074218-.449219.113281-.167968.046875-.34375.085937-.511718.140625-.082032.023438-.164063.058594-.246094.089844-.222656.078125-.449219.152344-.664063.246094-.042969.019531-.082031.042968-.125.0625-.25.109374-.496093.226562-.734375.355468-.113281.0625-.21875.136719-.332031.203125-.15625.09375-.320313.183594-.476563.289063-.757812.511718-1.445312 1.132812-2.042968 1.847656-.023438.027344-.050782.050781-.074219.082031-.132813.160157-.25.332031-.375.5-.070313.097657-.148437.195313-.21875.296875-.078125.117188-.148437.242188-.21875.363282-.101563.167968-.207031.332031-.296875.503906-.046875.085937-.085938.179687-.128906.269531-.105469.214844-.210938.429687-.300782.652344-.007812.019531-.019531.035156-.023437.054687-.03125.074219-.050781.148438-.078125.21875-.082031.21875-.160156.441406-.226562.664063-.039063.132812-.066407.261719-.101563.394531-.046875.179688-.09375.363281-.128906.546875-.035157.183594-.058594.367187-.082031.550781-.019532.136719-.039063.273438-.054688.410156-.019531.230469-.027344.460938-.035156.691407 0 .082031-.011719.160156-.011719.238281v.167969.035156 159.59375.035156.167969c0 .082031.011719.160156.011719.238281.007812.230469.015625.460938.035156.691407.015625.136718.035156.273437.054688.410156.023437.183594.046874.367187.082031.550781.039062.183594.082031.367187.128906.550781.035156.128906.0625.257813.101563.390625.066406.226563.144531.445313.226562.664063.027344.074218.046875.144531.078125.21875.003906.015625.011719.027344.019531.042968.171875.429688.378906.839844.609375 1.238282.046875.085937.101563.167968.152344.25.21875.351562.449219.691406.707031 1.015625.035156.039062.066406.085937.101563.125.265625.320312.554687.617187.855469.898437.089843.082032.179687.164063.269531.246094.320312.28125.652343.542969 1.007812.78125.027344.019531.054688.03125.082031.050781.347657.226563.714844.429688 1.089844.613281.074219.035157.148438.074219.226563.109376.40625.1875.820312.351562 1.253906.480468.011719.003906.023437.007813.039063.011719.398437.117187.808593.207031 1.222656.277344.113281.015625.226562.035156.339844.050781.398437.050781.800781.085938 1.214843.089844.03125 0 .0625.007812.097657.007812h.050781 399.890625.050781c.03125 0 .0625-.007812.097656-.007812.410157-.003906.816407-.035156 1.214844-.089844.113281-.015625.222656-.035156.335937-.050781.417969-.070313.828126-.160157 1.226563-.277344.015625-.003906.027344-.007813.039063-.011719.433593-.128906.847656-.296875 1.253906-.480468.074218-.035157.148437-.074219.222656-.109376.378906-.1875.746094-.386718 1.097656-.617187.023438-.015625.046875-.03125.074219-.046875.355469-.238281.6875-.503906 1.011719-.785156.089844-.078125.175781-.160156.261718-.242188.304688-.285156.601563-.582031.867188-.90625.03125-.039062.058594-.078125.089844-.117187.257812-.320313.492187-.664063.714844-1.019531.050781-.082032.101562-.160157.148437-.246094.230469-.398438.4375-.8125.613281-1.242188.003906-.015625.011719-.027344.019532-.039062.027343-.074219.046874-.148438.074218-.222656.082032-.21875.160156-.4375.226563-.664063.039062-.128906.070312-.257813.101562-.390625.046875-.179688.09375-.363281.128907-.550781.035156-.183594.058593-.363281.082031-.546875.019531-.136719.042969-.273438.054687-.410156.023438-.234376.027344-.460938.035156-.691407 0-.082031.011719-.160156.011719-.242187v-.164063c0-.011719 0-.023437 0-.035156v-159.59375c.003907-.011719 0-.023437 0-.035156zm-400 14.601562 163.074219 65.230469-163.074219 65.230469zm41.925781-4.769531h296.148438l-148.070312 59.230469zm148.074219 80.769531 148.074219 59.230469h-296.148438zm26.925781-10.769531 163.074219-65.230469v130.460938zm0 0" fill="#f5a426"/><path d="m239.796875 359.25c-.011719-.117188-.015625-.234375-.027344-.347656-.019531-.199219-.054687-.394532-.089843-.59375-.023438-.132813-.039063-.269532-.070313-.402344-.03125-.15625-.078125-.3125-.121094-.472656-.042969-.167969-.085937-.335938-.136719-.5-.039062-.117188-.085937-.238282-.132812-.355469-.070312-.195313-.140625-.390625-.226562-.582031-.042969-.101563-.09375-.195313-.140626-.296875-.097656-.203125-.195312-.402344-.304687-.601563-.015625-.027344-.027344-.054687-.042969-.082031-.046875-.078125-.101562-.148437-.148437-.226563-.105469-.175781-.214844-.347656-.332031-.515624-.085938-.125-.179688-.246094-.273438-.371094-.101562-.128906-.199219-.257813-.308594-.382813-.117187-.136719-.238281-.269531-.363281-.398437-.09375-.101563-.1875-.199219-.289063-.296875-.136718-.132813-.277343-.257813-.421874-.382813-.097657-.085937-.199219-.175781-.304688-.257812-.144531-.113282-.292969-.222656-.441406-.328125-.117188-.085938-.238282-.167969-.359375-.246094-.140625-.089844-.28125-.175781-.425781-.257813-.140626-.085937-.285157-.164062-.433594-.242187-.128906-.066406-.261719-.128906-.394532-.1875-.164062-.078125-.332031-.148437-.5-.21875-.128906-.050781-.253906-.09375-.382812-.136719-.175781-.0625-.355469-.121094-.535156-.175781-.136719-.039063-.273438-.070313-.410156-.105469-.171876-.039062-.34375-.078125-.519532-.113281-.164062-.03125-.328125-.050781-.496094-.074219-.148437-.019531-.296874-.042968-.449218-.054687-.203125-.019531-.410156-.027344-.621094-.03125-.085938 0-.171875-.011719-.261719-.011719h-174c-.085937 0-.167969.007812-.25.011719-.214843.003906-.425781.011719-.640625.03125-.144531.015625-.285156.035156-.425781.054687-.175781.019532-.347656.046875-.519531.078125-.167969.03125-.332032.066407-.496094.109375-.144531.035156-.289062.070313-.433594.109375-.175781.050781-.34375.109375-.511718.167969-.136719.046875-.273438.09375-.40625.148438-.164063.0625-.320313.132812-.476563.203124-.144531.066407-.28125.132813-.417969.203126-.140625.070312-.277344.148437-.414062.226562-.152344.085938-.300782.175781-.445313.269531-.117187.074219-.230469.152344-.339843.234375-.15625.109375-.308594.222656-.460938.339844-.097656.082031-.195312.164062-.289062.246094-.148438.128906-.292969.257812-.433594.394531-.097656.09375-.1875.1875-.28125.285156-.125.132813-.25.269531-.371094.410157-.101562.121093-.203125.25-.300781.375-.09375.125-.191407.246093-.277344.375-.117187.167968-.226563.339843-.332031.515624-.046875.074219-.101563.148438-.144532.226563-.015624.027344-.027343.054687-.042968.082031-.109375.199219-.210938.398438-.308594.601563-.046875.101562-.097656.195312-.140625.296875-.082031.1875-.15625.386718-.226563.582031-.042968.117187-.089843.238281-.128906.355469-.054687.164062-.09375.332031-.140625.5-.039062.15625-.085937.3125-.121093.472656-.027344.132812-.046876.269531-.070313.402344-.03125.199218-.066406.394531-.089844.589844-.011719.117187-.015625.234374-.023437.351562-.015625.21875-.03125.433594-.035156.648438 0 .035156-.003907.066406-.003907.101562v100c0 .035156.003907.066406.003907.101562.003906.214844.019531.429688.035156.648438.007812.117188.011718.234375.023437.351562.023438.195313.058594.390626.089844.589844.023437.132813.042969.269532.070313.402344.035156.15625.082031.3125.121093.472656.046875.167969.085938.335938.140625.5.039063.117188.085938.238282.128906.355469.074219.195313.144532.390625.226563.582031.042969.101563.09375.195313.140625.296875.097656.203125.199219.402344.308594.601563.015625.027344.027344.054687.042968.082031.027344.046875.0625.089844.089844.136719.171875.289062.359375.566406.558594.835937.066406.089844.128906.179688.199219.265625.238281.300782.492187.59375.765625.867188.066406.0625.136718.121094.203125.183594.21875.207031.449219.402343.683593.589843.109376.082031.214844.164063.324219.242188.238281.171875.484375.332031.734375.480469.082032.046874.160156.101562.242188.148437.34375.191406.699218.363281 1.066406.515625.046875.019531.09375.03125.140625.050781.320313.125.648437.234375.984375.328125.097656.027344.195312.050782.292969.074219.292969.074219.589843.132813.894531.175781.105469.015625.207031.035156.3125.046875.367188.042969.738281.070313 1.117188.074219.023437 0 .046874.003906.070312.003906h.023438 173.9375.023437c.023437 0 .042969-.003906.070313-.003906.378906-.003906.75-.03125 1.117187-.074219.105469-.011719.207031-.03125.3125-.046875.304687-.046875.601563-.105468.894531-.175781.097656-.023437.195313-.046875.292969-.074219.335937-.09375.664063-.203125.988281-.332031.042969-.015625.089844-.03125.132813-.046875.367187-.152344.722656-.324219 1.066406-.519531.082031-.042969.160156-.097657.242187-.144531.253907-.152344.496094-.3125.734376-.484376.109374-.078124.21875-.15625.324218-.242187.238282-.183594.464844-.382813.683594-.589844.070312-.0625.140625-.117187.203125-.183593.273437-.273438.527344-.5625.769531-.867188.066406-.085938.128906-.175781.195313-.261719.203125-.269531.386719-.550781.5625-.839843.027343-.046876.0625-.085938.089843-.132813.015626-.027344.027344-.058594.042969-.085937.109375-.195313.207031-.398438.304688-.601563.046875-.097656.097656-.195313.140625-.292969.085937-.191406.15625-.386718.226562-.582031.046875-.121094.09375-.238281.132813-.359375.050781-.164062.09375-.332031.136719-.496094.042968-.160156.089843-.316406.121093-.476562.03125-.132813.046875-.265625.070313-.398438.035156-.199218.070312-.394531.089844-.59375.015624-.117187.019531-.234375.027343-.351562.015625-.214844.03125-.429688.03125-.648438 0-.035156.007813-.066406.007813-.101562v-100c0-.03125-.007813-.0625-.007813-.097656-.003906-.214844-.019531-.429688-.035156-.648438zm-173.964844 18.03125 56.933594 32.71875-56.933594 32.71875zm27.46875-7.28125h99.0625l-49.527343 28.464844zm49.53125 51.535156 49.53125 28.464844h-99.0625zm20.070313-11.535156 56.929687-32.71875v65.4375zm0 0" fill="#f5a426"/></svg>
