<?xml version="1.0"?>
<svg xmlns="http://www.w3.org/2000/svg" height="512px" viewBox="0 0 512.001 512" width="512px"><path d="m340.042969 288.953125c4.253906-5.671875 7.882812-11.679687 10.867187-17.953125h73.671875c6.191407 17.457031 22.863281 30 42.417969 30 24.8125 0 45-20.1875 45-45s-20.1875-45-45-45c-19.554688 0-36.226562 12.542969-42.417969 30h-64.65625c.699219-4.929688 1.074219-9.933594 1.074219-15 0-52.804688-39.183594-96.621094-90-103.921875v-34.65625c17.460938-6.195313 30-22.867187 30-42.421875 0-24.8125-20.1875-45-45-45-19.554688 0-36.226562 12.542969-42.421875 30h-126.15625c-6.195313-17.457031-22.867187-30-42.421875-30-24.8125 0-45 20.1875-45 45s20.1875 45 45 45c19.554688 0 36.226562-12.542969 42.421875-30h126.15625c4.527344 12.765625 14.65625 22.894531 27.421875 27.421875v34.65625c-50.816406 7.300781-90 51.117187-90 103.921875 0 5.066406.375 10.070312 1.074219 15h-64.652344c-6.195313-17.457031-22.867187-30-42.421875-30-24.8125 0-45 20.1875-45 45s20.1875 45 45 45c19.554688 0 36.226562-12.542969 42.421875-30h73.667969c2.984375 6.273438 6.613281 12.28125 10.867187 17.953125l69.042969 92.046875v43.582031c-17.460938 6.191407-30 22.863281-30 42.417969 0 24.8125 20.1875 45 45 45 19.554688 0 36.226562-12.542969 42.421875-30h126.15625c6.195313 17.457031 22.867187 30 42.421875 30 24.8125 0 45-20.1875 45-45s-20.1875-45-45-45c-19.554688 0-36.226562 12.542969-42.421875 30h-126.15625c-4.527344-12.761719-14.65625-22.890625-27.421875-27.417969v-43.582031zm126.957031-47.953125c8.269531 0 15 6.730469 15 15 0 8.273438-6.730469 15-15 15s-15-6.726562-15-15c0-8.269531 6.730469-15 15-15zm-422 30c-8.269531 0-15-6.726562-15-15 0-8.269531 6.730469-15 15-15s15 6.730469 15 15c0 8.273438-6.730469 15-15 15zm211-241c8.269531 0 15 6.730469 15 15 0 8.273438-6.730469 15-15 15s-15-6.726562-15-15c0-8.269531 6.730469-15 15-15zm-211 30c-8.269531 0-15-6.726562-15-15 0-8.269531 6.730469-15 15-15s15 6.730469 15 15c0 8.273438-6.730469 15-15 15zm150.957031 210.949219c-9.785156-13.042969-14.957031-28.585938-14.957031-44.949219 0-41.355469 33.644531-75 75-75s75 33.644531 75 75c0 16.363281-5.171875 31.90625-14.957031 44.953125l-60.042969 80.046875zm60.042969 211.050781c-8.269531 0-15-6.726562-15-15 0-8.269531 6.730469-15 15-15s15 6.730469 15 15c0 8.273438-6.730469 15-15 15zm211-30c8.269531 0 15 6.730469 15 15 0 8.273438-6.730469 15-15 15s-15-6.726562-15-15c0-8.269531 6.730469-15 15-15zm0 0" fill="#f5a426"/><path d="m301 226c0-24.8125-20.1875-45-45-45s-45 20.1875-45 45 20.1875 45 45 45 45-20.1875 45-45zm-60 0c0-8.269531 6.730469-15 15-15s15 6.730469 15 15c0 8.273438-6.730469 15-15 15s-15-6.726562-15-15zm0 0" fill="#f5a426"/></svg>
